# xmcd CD database file
#
# Track frame offsets:
#	150
#	22565
#	43893
#	63096
#	80533
#	91480
#	110390
#	133567
#	160817
#	177527
#	203445
#	223755
#
# Disc length: 3124 seconds
#
# Revision: 0
# Processed by: cddbd v1.5.1PL0 Copyright (c) Steve Scherf et al.
# Submitted via: CDex 1.51
#
DISCID=980c320c
DTITLE=Dixie Chicks - Home
DYEAR=2003
DGENRE=Country
TTITLE0=Long Time Gone
TTITLE1=Landslide
TTITLE2=Travelin Soldier
TTITLE3=Truth No 2
TTITLE4=White Trash Wedding
TTITLE5=A Home
TTITLE6=More Love
TTITLE7=I Believe in Love
TTITLE8=Tortured Tangled Hearts
TTITLE9=Lil' Jack Slade
TTITLE10=Godspeed (Sweet Dreams)
TTITLE11=Top of the World
EXTD=YEAR: 2003
EXTT0=
EXTT1=
EXTT2=
EXTT3=
EXTT4=
EXTT5=
EXTT6=
EXTT7=
EXTT8=
EXTT9=
EXTT10=
EXTT11=
PLAYORDER=
